<svg width="20" height="20" viewBox="0 0 20 20" fill="none" xmlns="http://www.w3.org/2000/svg">
<path d="M17.1544 7.6582L12.3419 2.8457C12.2149 2.71875 12.0489 2.65625 11.8829 2.65625C11.7169 2.65625 11.5509 2.71875 11.4239 2.8457L8.27743 5.99414C8.03915 5.9668 7.79892 5.95508 7.55868 5.95508C6.129 5.95508 4.69931 6.42578 3.52548 7.36719C3.2247 7.60742 3.20126 8.05859 3.47275 8.33203L7.02157 11.8809L2.81454 16.084C2.76299 16.1352 2.73117 16.203 2.7247 16.2754L2.65829 17.002C2.64072 17.1855 2.7872 17.3418 2.96884 17.3418C2.97861 17.3418 2.98837 17.3418 2.99814 17.3398L3.7247 17.2734C3.79697 17.2676 3.86532 17.2344 3.91611 17.1836L8.12314 12.9766L11.672 16.5254C11.7989 16.6523 11.9649 16.7148 12.1309 16.7148C12.3204 16.7148 12.5079 16.6328 12.6368 16.4727C13.7364 15.0996 14.1935 13.3809 14.0079 11.7188L17.1544 8.57227C17.4063 8.32227 17.4063 7.91211 17.1544 7.6582V7.6582Z" fill="white"/>
</svg>
